#!OML:ASF F:\VICON\USERDATA\INSTALL\rory3\rory3.ASF
:FULLY-SPECIFIED
:DEGREES
46
root -0.08794083605693018 18.034972218656065 12.398452697954596 4.6045428104302415 2.7827568124630946 -4.264158716378197
lfemur -34.806519712373124 -5.41006614613084 -12.648111855604148
ltibia 11.223643115214557
lfoot 4.937288703780602 -8.859690052516216
ltoes -11.419524927966718
rfemur -2.3045972865117115 3.6633163164127853 33.22340395978739
rtibia 59.990493826292834
rfoot 19.407307424443683 -4.723217656646394
rtoes 16.985995647655425
lowerback 16.451880786566594 1.50836983559684 3.073847960322105
upperback -1.7726243207165555 3.821875790029743 1.6733075786315303
thorax -9.874010363035461 1.4835223773070374 -2.576707097836488
lowerneck -20.68928833519017 -4.005991222122722 -1.6637653225945896
upperneck 13.355516266394888 -5.678305272023276 3.9971824944204464
head 7.718971788125767 -2.2363318794626177 0.7965973650177205
lclavicle -1.7357219752526863e-15 1.7646319786325533e-15
lhumerus -65.0886376134393 -3.289872072404979 91.66571963640186
lradius 98.01539265589079
lwrist 33.67969164480649
lhand -24.74597646581281 2.017203767067758
lfingers 7.12502
lthumb 1.756374924375526 32.02483483959107
rclavicle -1.725675760071174e-15 1.785923136335199e-15
rhumerus -51.091819530971634 12.41640388065495 -97.7796452192548
rradius 111.21941113336594
rwrist -10.30958705551623
rhand -17.145766649331065 40.265039854224824
rfingers 7.12502
rthumb 8.985516573706446 10.427480764898942
47
root -0.05567139631803239 17.930213140465405 12.969922100276793 4.675281130324712 2.703338135570712 -4.096130305615041
lfemur -33.41644334702836 -6.2055881349247395 -13.550156497888857
ltibia 13.14020585806302
lfoot 5.671001924980432 -8.886224529425203
ltoes -10.70820273948776
rfemur -3.12721628034771 3.4149002880789845 32.72498417234964
rtibia 62.349666210040766
rfoot 19.40804578632092 -4.784120962399876
rtoes 15.410548753142518
lowerback 16.496290152731177 1.523990996645211 2.7475642633386776
upperback -1.6893596978133214 3.587300253061414 1.44047248803688
thorax -9.851938513256087 1.5389309998796352 -2.682751633847913
lowerneck -20.769257967559938 -4.07155736043603 -1.6644563531031145
upperneck 13.030617184294286 -5.961670606571469 4.0933446799604525
head 7.684906265277447 -2.2158063028606323 0.8238310344507245
lclavicle -1.735725464403152e-15 1.7646268179049624e-15
lhumerus -66.18500805520803 -3.6246469026250807 91.24270011525881
lradius 97.517297726601
lwrist 33.952902910865184
lhand -24.776308825573867 1.8249168533420965
lfingers 7.12502
lthumb 1.7539641428795352 31.859435083956708
rclavicle -1.7256746220305625e-15 1.7859240237014956e-15
rhumerus -51.4250280812226 11.889693560405547 -97.5161118557411
rradius 109.97411888514263
rwrist -9.725907993408164
rhand -17.098258293380336 40.25761494809961
rfingers 7.12502
rthumb 9.04816341334927 10.447094656686346
48
root -0.02418896203479501 17.851996657617097 13.587173801766397 4.652643016266072 2.720419922298218 -3.8731976665458165
lfemur -32.6022828708358 -5.029974003743496 -15.298101649066016
ltibia 21.102970080785198
lfoot 5.352398827672968 -8.035385567267435
ltoes -10.330392859756328
rfemur -4.138112214806993 3.06300135702799 32.118720099424124
rtibia 66.38907823128157
rfoot 17.71704464430201 -5.7253604387750965
rtoes 14.471099089301136
lowerback 16.55972601624228 1.5135732548042486 2.3417556808866937
upperback -1.566406658753448 3.27392677015606 1.2275874622369007
thorax -9.841904825320766 1.5754004126501417 -2.6877761799556894
lowerneck -20.831427847221967 -4.144714904022644 -1.6806078973202405
upperneck 12.866485939505164 -6.146018891424085 4.175614714375937
head 7.659484004698364 -2.246847613909758 0.8473534386763681
lclavicle -1.7357255433086528e-15 1.7646243432700376e-15
lhumerus -65.89823129698694 -4.143530638396864 91.20119630300952
lradius 97.41951093052467
lwrist 34.23859596306795
lhand -24.770704575065015 1.7361500634553384
lfingers 7.12502
lthumb 1.7625231746656427 31.75339456525508
rclavicle -1.725675947965056e-15 1.7859230478878607e-15
rhumerus -51.857400495231445 11.397487860986232 -97.1856227530508
rradius 108.89626889254687
rwrist -8.892262633240673
rhand -16.98692064083614 40.23254119552268
rfingers 7.12502
rthumb 9.183016624675266 10.457736757003463
49
root 0.008417989033245032 17.8145656223486 14.458761416312328 4.544123285865781 2.732148544599689 -3.6021096207007854
lfemur -31.43957201344793 -4.040953752949002 -17.112514247029257
ltibia 32.01831730677294
lfoot 3.1299243695716243 -7.489346954300368
ltoes -9.934137343041668
rfemur -5.575907710632729 2.520242812756085 31.34357230393152
rtibia 72.1890914949629
rfoot 17.28693288125526 -6.503240693061099
rtoes 13.780414546798973
lowerback 16.651049698187776 1.4690933188983084 1.8707806255817296
upperback -1.4009560257559228 2.9267924502796383 1.0653877655830892
thorax -9.865838037492127 1.5862029456368303 -2.614086410957102
lowerneck -20.852504504063504 -4.226553927506911 -1.699284210477601
upperneck 12.999333847255318 -6.264070212822841 4.233159155369067
head 7.672079528960903 -2.3057912918162695 0.8721276228105419
lclavicle -1.7357285635224365e-15 1.7646246862054252e-15
lhumerus -64.381186169643 -4.9474424297071735 91.58558798279337
lradius 97.69250053488386
lwrist 34.557279033026894
lhand -24.760115332705862 1.6780393210246962
lfingers 7.12502
lthumb 1.778535915636597 31.69104571294813
rclavicle -1.7256734365452354e-15 1.785924886010372e-15
rhumerus -52.02739190074983 11.191730458234598 -96.92783234956116
rradius 108.13195735139386
rwrist -7.8465898076205
rhand -16.832773676015965 40.221623711046796
rfingers 7.12502
rthumb 9.297879864004356 10.455587170576191
50
root 0.036496841661008333 17.793117839780866 15.119129637582581 4.3402844880492015 2.6229634512926148 -3.3212530223463466
lfemur -29.009835501227656 -3.328352362700627 -18.79034521492764
ltibia 41.24212967678076
lfoot 1.460335998965116 -6.190740256299573
ltoes -9.475485427383186
rfemur -7.948370204309423 1.78560271982801 30.313032459149074
rtibia 79.39935281563375
rfoot 16.860361692286073 -7.217669551571341
rtoes 11.8999796738599
lowerback 16.776414778193217 1.392359718591909 1.3823263434165116
upperback -1.1984261454849758 2.550857528253254 0.9516318166869521
thorax -9.9113267214681 1.5754912975027735 -2.471246280940001
lowerneck -20.825005491752425 -4.298535607700865 -1.7284859157783021
upperneck 13.247966104900243 -6.3235641176738895 4.234663561356081
head 7.666949629371299 -2.3865070807349444 0.897625419503425
lclavicle -1.7357309838419176e-15 1.7646251516302745e-15
lhumerus -62.03438417810055 -6.05053781418664 92.27502894605422
lradius 98.29659820185927
lwrist 34.7934134001078
lhand -24.74008522920295 1.6676065723495095
lfingers 7.12502
lthumb 1.7995746902261884 31.676367545208624
rclavicle -1.7256726506562848e-15 1.7859254267070227e-15
rhumerus -51.91499695531386 11.238964498881568 -96.88475471651756
rradius 107.68190166130485
rwrist -6.88925878640239
rhand -16.692465693186474 40.17633385260656
rfingers 7.12502
rthumb 9.405019901645497 10.424589163346981
51
root 0.06623899128717561 17.791996318729186 15.939887794143486 4.108346711103673 2.3950778084544813 -2.9753655344069196
lfemur -25.568443578723635 -2.436488284615291 -20.37649556706557
ltibia 47.25226437699945
lfoot -0.18833819708428692 -6.409494421810125
ltoes -8.884329587553463
rfemur -11.505432557317802 1.0521505392582033 29.21371781963726
rtibia 87.01776310513844
rfoot 17.14736547055734 -7.349342453046246
rtoes 9.50762962471167
lowerback 16.92005554151816 1.2913246837056078 0.9309282872070481
upperback -0.9761575832181193 2.1674994289846734 0.9003353636494045
thorax -9.973040827125867 1.536970358337459 -2.2703535401874
lowerneck -20.773394330766244 -4.363317699354811 -1.7682256744747575
upperneck 13.404950054002816 -6.300919605339555 4.217022963905409
head 7.648270908041467 -2.4703990554609483 0.9144263724317951
lclavicle -1.7357341765944495e-15 1.764620297907271e-15
lhumerus -59.229662430767505 -7.338740125813655 93.0957920955236
lradius 99.19756532354597
lwrist 34.787836743484156
lhand -24.750320322398977 1.6185601374488927
lfingers 7.12502
lthumb 1.7884741474550507 31.61664184061346
rclavicle -1.7256695625131988e-15 1.785927673556446e-15
rhumerus -51.73683129891609 11.342456308251256 -97.06081639497779
rradius 107.47240067891555
rwrist -6.173429921391126
rhand -16.569340081090115 40.11135729563217
rfingers 7.12502
rthumb 9.507599347777933 10.360213271562252
